<svg xmlns="http://www.w3.org/2000/svg" xmlns:xlink="http://www.w3.org/1999/xlink" xmlns:lucid="lucid" width="1042" height="525.84"><g transform="translate(421 -39)" lucid:page-tab-id="0_0"><path d="M0 320v120h160V320l-60-24v-16H60v16z" stroke="#000" stroke-width="2" fill="#fff"/><use xlink:href="#a" transform="matrix(1,0,0,1,0,445) translate(28.17901234567902 24.444444444444443)"/><use xlink:href="#b" transform="matrix(1,0,0,1,0,445) translate(107.12962962962962 24.444444444444443)"/><path d="M-400 164.12v72.37h100V164.1l-37.5-14.47V140h-25v9.65z" stroke="#000" stroke-width="2" fill="#fff"/><use xlink:href="#c" transform="matrix(1,0,0,1,-400,241.4849639459771) translate(13.611111111111114 17.77777777777778)"/><use xlink:href="#d" transform="matrix(1,0,0,1,-400,241.4849639459771) translate(37.65432098765432 44.44444444444444)"/><path d="M-400 418.02v75h100v-75l-37.5-15v-10h-25v10z" stroke="#000" stroke-width="2" fill="#fff"/><use xlink:href="#c" transform="matrix(1,0,0,1,-400,498.0181702720689) translate(13.611111111111114 17.77777777777778)"/><use xlink:href="#e" transform="matrix(1,0,0,1,-400,498.0181702720689) translate(37.65432098765432 44.44444444444444)"/><path d="M440 316.07v120h160v-120l-60-24v-16h-40v16z" stroke="#000" stroke-width="2" fill="#fff"/><use xlink:href="#a" transform="matrix(1,0,0,1,440,441.07037755982594) translate(28.17901234567902 24.444444444444443)"/><use xlink:href="#f" transform="matrix(1,0,0,1,440,441.07037755982594) translate(107.12962962962962 24.444444444444443)"/><path d="M-176.5 296.4v-20.33h-38.1c-12.23 0-22.44 8.34-24.9 20.32-2.8 13.74 6.08 27.16 19.82 29.97 13.75 2.8 27.17-6.06 29.98-19.8z" stroke="#000" stroke-width="2" fill="#fff"/><path d="M-214.6 311.64c-5.6 0-10.16-4.55-10.16-10.16 0-5.62 4.55-10.17 10.17-10.17s10.17 4.56 10.17 10.18c0 5.6-4.55 10.16-10.16 10.16z" stroke="#000" stroke-width="2" fill="#fff"/><path d="M-130 242.5a6 6 0 0 1 6-6h51.52a6 6 0 0 1 6 6V294a6 6 0 0 1-6 6H-124a6 6 0 0 1-6-6z" fill="none"/><path d="M-123.65 268.24V300l24.4-15.88zm24.4 15.88h2zm2 0l24.4-15.88V300zM-98.24 284.12v-15.88zm0-15.88h-15.88V236.5h31.76v31.74z" stroke="#000" fill="#fff"/><use xlink:href="#g" transform="matrix(1,0,0,1,-112.85094026541384,239.66071574867829) translate(7.0249999999999995 18.1)"/><path d="M188.46 203.15c0-18.4-16.2-33.33-36.15-33.33-19.96 0-36.15 14.92-36.15 33.33 0 18.4 16.2 33.34 36.16 33.34 19.97 0 36.16-14.94 36.16-33.35z" stroke="#000" stroke-width="2" fill="#fff"/><use xlink:href="#h" transform="matrix(1,0,0,1,125.1923076923077,178.1516306126438) translate(15.401234567901234 17.77777777777778)"/><use xlink:href="#i" transform="matrix(1,0,0,1,125.1923076923077,208.15163061264377) translate(8.981481481481481 17.77777777777778)"/><path d="M-313.85 93.33c0-18.4-16.18-33.33-36.15-33.33s-36.15 14.92-36.15 33.33c0 18.4 16.18 33.34 36.15 33.34s36.15-14.93 36.15-33.34z" stroke="#000" stroke-width="2" fill="#fff"/><use xlink:href="#h" transform="matrix(1,0,0,1,-377.1153846153845,68.33333333333333) translate(15.401234567901234 17.77777777777778)"/><use xlink:href="#j" transform="matrix(1,0,0,1,-377.1153846153845,98.33333333333331) translate(8.981481481481481 17.77777777777778)"/><path d="M-104.18 162c0-18.4-16.18-33.33-36.15-33.33S-176.5 143.6-176.5 162c0 18.42 16.2 33.34 36.17 33.34 19.97 0 36.15-14.92 36.15-33.33z" stroke="#000" stroke-width="2" fill="#fff"/><use xlink:href="#k" transform="matrix(1,0,0,1,-167.4465024075156,137.00751802701146) translate(15.549999999999999 14.4)"/><use xlink:href="#l" transform="matrix(1,0,0,1,-167.4465024075156,167.00751802701143) translate(8.981481481481481 17.77777777777778)"/><path d="M-140.33 197.34v18.82h42.1V235" stroke="#000" stroke-width="2" fill="none"/><path d="M-139.36 197.37h-1.95v-1.05l1 .02.94-.06zM-97.27 236h-1.95v-1.04h1.95z" stroke="#000" stroke-width=".05"/><path d="M80 338v55.12z" stroke="#000" stroke-width="2" fill-opacity="0"/><path d="M80 399.12c-16.68 12.88-43.32 12.88-60 0 16.68-12.96 43.32-12.96 60 0zM80 399.12c16.68-12.96 43.32-12.96 60 0-16.68 12.88-43.32 12.88-60 0z" stroke="#000" stroke-width="2" fill="#fff"/><path d="M74.4 224v36h10v-36h-10z" stroke="#000" stroke-width="2"/><path d="M60 167v52.2c1.12 9.1 40 9.1 40 0V167c0-7-38.88-7-40 0zM60 167h40m-40 52.2h40" stroke="#000" stroke-width="2" fill="#fff"/><path d="M80 262v75" stroke="#000" stroke-width="2" fill="none"/><path d="M80.97 262.03h-1.94V261h1.94zM80.97 338h-1.94v-1.03h1.94z" stroke="#000" stroke-width=".05"/><path d="M-241.95 301.47h-16.55V188.53h-16.55" stroke="#000" stroke-width="2" fill="none"/><path d="M-241 300.6l.1 1.85h-1.08v-1.95h1zM-275.02 189.5h-1.03v-1.95h1.03z" stroke="#000" stroke-width=".05"/><path d="M-2 356.75h-28v-71.33h-41.34" stroke="#000" stroke-width="2" fill="none"/><path d="M-1 357.73h-1.03v-1.95H-1z" stroke="#000" stroke-width=".05"/><path d="M-71.3 285.42h-4.04M152.3 238.5V270H92v8" stroke="#000" stroke-width="2" fill="none"/><path d="M153.28 238.5h-1.95v-1.04l1 .03.95-.08zM92.97 279h-1.94v-1.03h1.94z" stroke="#000" stroke-width=".05"/><path d="M-350 128.67V138" stroke="#000" stroke-width="2" fill="none"/><path d="M-349.02 128.7h-1.96v-1.06l1 .03.96-.07zM-349.02 139h-1.96v-1.03h1.96z" stroke="#000" stroke-width=".05"/><path d="M-21.02 162c0-18.4-16.2-33.33-36.16-33.33-19.96 0-36.15 14.93-36.15 33.34 0 18.42 16.2 33.34 36.15 33.34 19.97 0 36.16-14.92 36.16-33.33z" stroke="#000" stroke-width="2" fill="#fff"/><use xlink:href="#m" transform="matrix(1,0,0,1,-84.2926562536695,137.00751802701146) translate(16.549999999999997 14.4)"/><use xlink:href="#n" transform="matrix(1,0,0,1,-84.2926562536695,167.00751802701143) translate(8.981481481481481 17.77777777777778)"/><path d="M-57.18 197.34v18.82h-41.06V235" stroke="#000" stroke-width="2" fill="none"/><path d="M-56.2 197.37h-1.95v-1.05l1 .02.95-.06zM-97.27 236h-1.95v-1.04h1.95z" stroke="#000" stroke-width=".05"/><path d="M116.15 93.33C116.15 74.93 99.97 60 80 60S43.85 74.92 43.85 93.33c0 18.4 16.18 33.34 36.15 33.34s36.15-14.93 36.15-33.34z" stroke="#000" stroke-width="2" fill="#fff"/><use xlink:href="#o" transform="matrix(1,0,0,1,52.88461538461539,68.33333333333333) translate(12.098765432098766 17.77777777777778)"/><use xlink:href="#p" transform="matrix(1,0,0,1,52.88461538461539,68.33333333333333) translate(8.981481481481481 44.44444444444444)"/><path d="M80 128.67v13.73" stroke="#000" stroke-width="2" fill="none"/><path d="M80.97 128.7h-1.94v-1.06l1 .03.94-.07z" stroke="#000" stroke-width=".05"/><path d="M80 157.66l-4.64-14.26h9.28z" stroke="#000" stroke-width="2"/><path d="M58 189.97H35v-1.94h23z" stroke="#000" stroke-width=".05"/><path d="M59 189.97h-1.03v-1.94H59z"/><path stroke="#000" stroke-width=".05"/><path stroke="#000" stroke-width=".05"/><use xlink:href="#q" transform="matrix(1,0,0,1,-9.400920694706002,178.33333333333334) translate(0.004999999999999005 14.222222222222223)"/><path d="M-176.5 513.34v-20.32h-38.1c-12.23 0-22.44 8.34-24.9 20.32-2.8 13.75 6.08 27.17 19.82 29.98 13.75 2.8 27.17-6.07 29.98-19.82z" stroke="#000" stroke-width="2" fill="#fff"/><path d="M-214.6 528.6c-5.6 0-10.16-4.56-10.16-10.18 0-5.6 4.55-10.16 10.17-10.16s10.17 4.55 10.17 10.16c0 5.62-4.55 10.17-10.16 10.17z" stroke="#000" stroke-width="2" fill="#fff"/><path d="M-160.36 459.43a6 6 0 0 1 6-6h51.5a6 6 0 0 1 6 6v51.52a6 6 0 0 1-6 6h-51.5a6 6 0 0 1-6-6z" fill="none"/><path d="M-154 485.2v31.75l24.4-15.88zm24.4 15.87h2zm2 0l24.4-15.88v31.75zM-128.6 501.07V485.2zm0-15.88h-15.88v-31.77h31.75v31.76z" stroke="#000" fill="#fff"/><use xlink:href="#g" transform="matrix(1,0,0,1,-143.21213011156772,456.60850846092126) translate(7.0249999999999995 18.1)"/><path d="M-130 400c0-18.4-16.2-33.33-36.15-33.33-19.97 0-36.16 14.92-36.16 33.33 0 18.4 16.18 33.33 36.15 33.33 19.96 0 36.15-14.92 36.15-33.33z" stroke="#000" stroke-width="2" fill="#fff"/><use xlink:href="#k" transform="matrix(1,0,0,1,-193.26923076923077,375) translate(15.549999999999999 14.4)"/><use xlink:href="#r" transform="matrix(1,0,0,1,-193.26923076923077,405) translate(8.981481481481481 17.77777777777778)"/><path d="M-174.5 502.7h19" stroke="#000" stroke-width="2" fill="none"/><path d="M-174.46 503.68h-1.03v-1.95h1.04z" stroke="#000" stroke-width=".05"/><path d="M-155.53 502.7h4.02" stroke="#000" stroke-width="2" fill="none"/><path d="M-48.7 400c0-18.4-16.2-33.33-36.16-33.33-19.97 0-36.16 14.92-36.16 33.33 0 18.4 16.2 33.33 36.16 33.33 19.97 0 36.15-14.92 36.15-33.33z" stroke="#000" stroke-width="2" fill="#fff"/><use xlink:href="#m" transform="matrix(1,0,0,1,-111.9765744615385,375) translate(16.549999999999997 14.4)"/><use xlink:href="#s" transform="matrix(1,0,0,1,-111.9765744615385,405) translate(8.981481481481481 17.77777777777778)"/><path d="M-84.86 435.33v8.3h-43.74v8.3" stroke="#000" stroke-width="2" fill="none"/><path d="M-83.9 435.36h-1.94v-1.05l1 .03.95-.06zM-127.63 452.93h-1.95v-1.02h1.95z" stroke="#000" stroke-width=".05"/><path d="M-101.7 503.2H-30V401.5h10.5M-101.67 503.2h-4.03" stroke="#000" stroke-width="2" fill="none"/><path d="M-4.24 401.5l-14.26 4.64v-9.27z" stroke="#000" stroke-width="2"/><path d="M-280 442.86h19.02v75.56h19.03" stroke="#000" stroke-width="2" fill="none"/><path d="M-279.97 443.83H-281v-1.95h1.03zM-241 517.54l.1 1.86h-1.07v-1.95h1z" stroke="#000" stroke-width=".05"/><path d="M-313.85 346.67c0-18.4-16.18-33.34-36.15-33.34s-36.15 14.93-36.15 33.34c0 18.4 16.18 33.33 36.15 33.33s36.15-14.92 36.15-33.33z" stroke="#000" stroke-width="2" fill="#fff"/><use xlink:href="#h" transform="matrix(1,0,0,1,-377.11538461538464,321.6666666666667) translate(15.401234567901234 17.77777777777778)"/><use xlink:href="#t" transform="matrix(1,0,0,1,-377.11538461538464,351.6666666666667) translate(8.981481481481481 17.77777777777778)"/><path d="M-350 382v9.02" stroke="#000" stroke-width="2" fill="none"/><path d="M-349.02 382.03h-1.96v-1.05l1 .02.96-.06zM-349.02 392.02h-1.96V391h1.96z" stroke="#000" stroke-width=".05"/><path d="M383.5 388.1v-20.3h-38.1c-12.23 0-22.44 8.33-24.9 20.3-2.8 13.76 6.08 27.18 19.82 30 13.75 2.8 27.17-6.08 29.98-19.82z" stroke="#000" stroke-width="2" fill="#fff"/><path d="M345.4 403.36c-5.6 0-10.16-4.55-10.16-10.17s4.55-10.17 10.17-10.17 10.17 4.55 10.17 10.17c0 5.6-4.55 10.16-10.16 10.16z" stroke="#000" stroke-width="2" fill="#fff"/><path d="M228.24 354.5a6 6 0 0 1 6-6h51.52a6 6 0 0 1 6 6V406a6 6 0 0 1-6 6h-51.52a6 6 0 0 1-6-6z" fill="none"/><path d="M234.6 380.24V412l24.4-15.88zm24.4 15.88h2zm2 0l24.4-15.88V412zM260 396.12v-15.88zm0-15.88h-15.88V348.5h31.76v31.74z" stroke="#000" fill="#fff"/><use xlink:href="#g" transform="matrix(1,0,0,1,245.39154170757473,351.6607157486783) translate(7.0249999999999995 18.1)"/><path d="M252.4 288.4c0-18.42-16.18-33.35-36.14-33.35-19.97 0-36.16 14.93-36.16 33.34 0 18.4 16.2 33.32 36.16 33.32 19.97 0 36.15-14.93 36.15-33.33z" stroke="#000" stroke-width="2" fill="#fff"/><use xlink:href="#k" transform="matrix(1,0,0,1,189.1421334116268,263.38554062109034) translate(15.549999999999999 14.4)"/><use xlink:href="#u" transform="matrix(1,0,0,1,189.1421334116268,293.38554062109034) translate(8.981481481481481 17.77777777777778)"/><path d="M216.26 323.72v11.63H260v11.63" stroke="#000" stroke-width="2" fill="none"/><path d="M217.23 323.75h-1.95v-1.06l1 .02.95-.07zM260.98 348h-1.96v-1.04h1.96z" stroke="#000" stroke-width=".05"/><path d="M332.3 288.4c0-18.42-16.18-33.35-36.15-33.35-19.96 0-36.15 14.93-36.15 33.34 0 18.4 16.2 33.32 36.15 33.32 19.97 0 36.16-14.93 36.16-33.33z" stroke="#000" stroke-width="2" fill="#fff"/><use xlink:href="#m" transform="matrix(1,0,0,1,269.03846153846155,263.38554062109034) translate(16.549999999999997 14.4)"/><use xlink:href="#v" transform="matrix(1,0,0,1,269.03846153846155,293.38554062109034) translate(8.981481481481481 17.77777777777778)"/><path d="M296.15 323.72v11.63H260v11.63" stroke="#000" stroke-width="2" fill="none"/><path d="M297.13 323.75h-1.95v-1.06l1 .02.95-.07zM260.98 348h-1.96v-1.04h1.96z" stroke="#000" stroke-width=".05"/><path d="M162 393.2h71.1" stroke="#000" stroke-width="2" fill="none"/><path d="M162.03 394.17H161v-1.95h1.03z" stroke="#000" stroke-width=".05"/><path d="M233.07 393.2h4.02M318.05 393.2H286.9" stroke="#000" stroke-width="2" fill="none"/><path d="M319 392.3l.1 1.87h-1.08v-1.95h1z" stroke="#000" stroke-width=".05"/><path d="M286.93 393.2h-4.02M385.5 377.47h10.26a6 6 0 0 0 6-6v-8.63a6 6 0 0 1 6-6H418" stroke="#000" stroke-width="2" fill="none"/><path d="M385.54 378.45h-1.03v-1.95h1.04zM419 357.82h-1.03v-1.95H419z" stroke="#000" stroke-width=".05"/><path d="M-128.6 451.93v-8.3h-37.55v-8.3" stroke="#000" stroke-width="2" fill="none"/><path d="M-127.63 452.93h-1.95v-1.02h1.95zM-165.18 435.36h-1.95v-1.05l1 .03.95-.06z" stroke="#000" stroke-width=".05"/><path d="M556.15 228.67c0-18.4-16.18-33.33-36.15-33.33s-36.15 14.92-36.15 33.33c0 18.4 16.18 33.34 36.15 33.34s36.15-14.92 36.15-33.33z" stroke="#000" stroke-width="2" fill="#fff"/><use xlink:href="#h" transform="matrix(1,0,0,1,492.88461538461536,203.67418469367811) translate(15.401234567901234 17.77777777777778)"/><use xlink:href="#w" transform="matrix(1,0,0,1,492.88461538461536,233.6741846936781) translate(8.981481481481481 17.77777777777778)"/><path d="M520 264v10.07" stroke="#000" stroke-width="2" fill="none"/><path d="M520.98 264.03H519v-1.05l1 .03.96-.06zM520.98 275.07H519v-1.02H521z" stroke="#000" stroke-width=".05"/><path d="M-287.05 178.24v20h10v-20z" fill-opacity="0"/><path d="M-287.05 178.24v20M-277.05 178.24v20" stroke="#000" stroke-width="2" fill="#fff"/><path d="M-289.05 188.24H-298" stroke="#000" stroke-width="2" fill="none"/><path d="M-288.05 189.22h-1.03v-1.95h1.03zM-297.97 189.22H-299v-1.95h1.03z" stroke="#000" stroke-width=".05"/><path d="M-174.5 285.75h31.85" stroke="#5e5e5e" stroke-width="2" fill="none"/><path d="M-174.46 286.73h-1.03v-1.95h1.04z" stroke="#5e5e5e" stroke-width=".05" fill="#5e5e5e"/><path d="M-127.39 285.75l-14.25 4.64v-9.28z" stroke="#5e5e5e" stroke-width="2" fill="#5e5e5e"/><path d="M-292 433.02v20h10v-20z" fill-opacity="0"/><path d="M-292 433.02v20M-282 433.02v20" stroke="#000" stroke-width="2" fill="#fff"/><path d="M-294 443.02h-4" stroke="#000" stroke-width="2" fill="none"/><path d="M-293 444h-1.03v-1.96h1.03zM-297.97 444H-299v-1.96h1.03z" stroke="#000" stroke-width=".05"/><path d="M420 346.67v20h10v-20z" fill-opacity="0"/><path d="M420 346.67v20M430 346.67v20" stroke="#000" stroke-width="2" fill="#fff"/><path d="M432 356.67h6" stroke="#000" stroke-width="2" fill="none"/><path d="M432.03 357.64H431v-1.95h1.03zM439 357.64h-1.03v-1.95H439z" stroke="#000" stroke-width=".05"/><defs><path d="M127-220V0H93v-220H8v-28h204v28h-85" id="x"/><path d="M141-36C126-15 110 5 73 4 37 3 15-17 15-53c-1-64 63-63 125-63 3-35-9-54-41-54-24 1-41 7-42 31l-33-3c5-37 33-52 76-52 45 0 72 20 72 64v82c-1 20 7 32 28 27v20c-31 9-61-2-59-35zM48-53c0 20 12 33 32 33 41-3 63-29 60-74-43 2-92-5-92 41" id="y"/><path d="M117-194c89-4 53 116 60 194h-32v-121c0-31-8-49-39-48C34-167 62-67 57 0H25l-1-190h30c1 10-1 24 2 32 11-22 29-35 61-36" id="z"/><path d="M145-31C134-9 116 4 85 4 32 4 16-35 15-94c0-59 17-99 70-100 32-1 48 14 60 33 0-11-1-24 2-32h30l-1 268h-32zM93-21c41 0 51-33 51-76s-8-73-50-73c-40 0-46 35-46 75s5 74 45 74" id="A"/><path d="M84 4C-5 8 30-112 23-190h32v120c0 31 7 50 39 49 72-2 45-101 50-169h31l1 190h-30c-1-10 1-25-2-33-11 22-28 36-60 37" id="B"/><path d="M100-194c63 0 86 42 84 106H49c0 40 14 67 53 68 26 1 43-12 49-29l28 8c-11 28-37 45-77 45C44 4 14-33 15-96c1-61 26-98 85-98zm52 81c6-60-76-77-97-28-3 7-6 17-6 28h103" id="C"/><g id="a"><use transform="matrix(0.06172839506172839,0,0,0.06172839506172839,0,0)" xlink:href="#x"/><use transform="matrix(0.06172839506172839,0,0,0.06172839506172839,11.049382716049381,0)" xlink:href="#y"/><use transform="matrix(0.06172839506172839,0,0,0.06172839506172839,23.39506172839506,0)" xlink:href="#z"/><use transform="matrix(0.06172839506172839,0,0,0.06172839506172839,35.74074074074074,0)" xlink:href="#A"/><use transform="matrix(0.06172839506172839,0,0,0.06172839506172839,48.08641975308642,0)" xlink:href="#B"/><use transform="matrix(0.06172839506172839,0,0,0.06172839506172839,60.432098765432094,0)" xlink:href="#C"/></g><path d="M158-156l-14 65h45v19h-49L124 0h-19l15-72H56L41 0H22l15-72H2v-19h39l14-65H11v-19h48l15-71h20l-16 71h64l16-71h19l-16 71h37v19h-40zm-83 0L61-91h63l14-65H75" id="D"/><path d="M126-127c33 6 58 20 58 59 0 88-139 92-164 29-3-8-5-16-6-25l32-3c6 27 21 44 54 44 32 0 52-15 52-46 0-38-36-46-79-43v-28c39 1 72-4 72-42 0-27-17-43-46-43-28 0-47 15-49 41l-32-3c6-42 35-63 81-64 48-1 79 21 79 65 0 36-21 52-52 59" id="E"/><g id="b"><use transform="matrix(0.06172839506172839,0,0,0.06172839506172839,0,0)" xlink:href="#D"/><use transform="matrix(0.06172839506172839,0,0,0.06172839506172839,12.345679012345679,0)" xlink:href="#E"/></g><g id="c"><use transform="matrix(0.06172839506172839,0,0,0.06172839506172839,0,0)" xlink:href="#x"/><use transform="matrix(0.06172839506172839,0,0,0.06172839506172839,11.049382716049381,0)" xlink:href="#y"/><use transform="matrix(0.06172839506172839,0,0,0.06172839506172839,23.39506172839506,0)" xlink:href="#z"/><use transform="matrix(0.06172839506172839,0,0,0.06172839506172839,35.74074074074074,0)" xlink:href="#A"/><use transform="matrix(0.06172839506172839,0,0,0.06172839506172839,48.08641975308642,0)" xlink:href="#B"/><use transform="matrix(0.06172839506172839,0,0,0.06172839506172839,60.432098765432094,0)" xlink:href="#C"/></g><path d="M27 0v-27h64v-190l-56 39v-29l58-41h29v221h61V0H27" id="F"/><g id="d"><use transform="matrix(0.06172839506172839,0,0,0.06172839506172839,0,0)" xlink:href="#D"/><use transform="matrix(0.06172839506172839,0,0,0.06172839506172839,12.345679012345679,0)" xlink:href="#F"/></g><path d="M101-251c82-7 93 87 43 132L82-64C71-53 59-42 53-27h129V0H18c2-99 128-94 128-182 0-28-16-43-45-43s-46 15-49 41l-32-3c6-41 34-60 81-64" id="G"/><g id="e"><use transform="matrix(0.06172839506172839,0,0,0.06172839506172839,0,0)" xlink:href="#D"/><use transform="matrix(0.06172839506172839,0,0,0.06172839506172839,12.345679012345679,0)" xlink:href="#G"/></g><path d="M155-56V0h-30v-56H8v-25l114-167h33v167h35v25h-35zm-30-156c-27 46-58 90-88 131h88v-131" id="H"/><g id="f"><use transform="matrix(0.06172839506172839,0,0,0.06172839506172839,0,0)" xlink:href="#D"/><use transform="matrix(0.06172839506172839,0,0,0.06172839506172839,12.345679012345679,0)" xlink:href="#H"/></g><path d="M240 0l2-218c-23 76-54 145-80 218h-23L58-218 59 0H30v-248h44l77 211c21-75 51-140 76-211h43V0h-30" id="I"/><use transform="matrix(0.05,0,0,0.05,0,0)" xlink:href="#I" id="g"/><path d="M30 0v-248h33v221h125V0H30" id="J"/><g id="h"><use transform="matrix(0.06172839506172839,0,0,0.06172839506172839,0,0)" xlink:href="#J"/><use transform="matrix(0.06172839506172839,0,0,0.06172839506172839,10.679012345679013,0)" xlink:href="#x"/></g><path d="M101-251c68 0 85 55 85 127S166 4 100 4C33 4 14-52 14-124c0-73 17-127 87-127zm-1 229c47 0 54-49 54-102s-4-102-53-102c-51 0-55 48-55 102 0 53 5 102 54 102" id="K"/><g id="i"><use transform="matrix(0.06172839506172839,0,0,0.06172839506172839,0,0)" xlink:href="#E"/><use transform="matrix(0.06172839506172839,0,0,0.06172839506172839,12.345679012345679,0)" xlink:href="#K"/><use transform="matrix(0.06172839506172839,0,0,0.06172839506172839,24.691358024691358,0)" xlink:href="#G"/></g><g id="j"><use transform="matrix(0.06172839506172839,0,0,0.06172839506172839,0,0)" xlink:href="#F"/><use transform="matrix(0.06172839506172839,0,0,0.06172839506172839,12.345679012345679,0)" xlink:href="#K"/><use transform="matrix(0.06172839506172839,0,0,0.06172839506172839,24.691358024691358,0)" xlink:href="#F"/></g><path d="M63-220v92h138v28H63V0H30v-248h175v28H63" id="L"/><path d="M212-179c-10-28-35-45-73-45-59 0-87 40-87 99 0 60 29 101 89 101 43 0 62-24 78-52l27 14C228-24 195 4 139 4 59 4 22-46 18-125c-6-104 99-153 187-111 19 9 31 26 39 46" id="M"/><g id="k"><use transform="matrix(0.05,0,0,0.05,0,0)" xlink:href="#L"/><use transform="matrix(0.05,0,0,0.05,10.950000000000001,0)" xlink:href="#M"/></g><g id="l"><use transform="matrix(0.06172839506172839,0,0,0.06172839506172839,0,0)" xlink:href="#F"/><use transform="matrix(0.06172839506172839,0,0,0.06172839506172839,12.345679012345679,0)" xlink:href="#K"/><use transform="matrix(0.06172839506172839,0,0,0.06172839506172839,24.691358024691358,0)" xlink:href="#G"/></g><g id="m"><use transform="matrix(0.05,0,0,0.05,0,0)" xlink:href="#L"/><use transform="matrix(0.05,0,0,0.05,10.950000000000001,0)" xlink:href="#x"/></g><g id="n"><use transform="matrix(0.06172839506172839,0,0,0.06172839506172839,0,0)" xlink:href="#F"/><use transform="matrix(0.06172839506172839,0,0,0.06172839506172839,12.345679012345679,0)" xlink:href="#K"/><use transform="matrix(0.06172839506172839,0,0,0.06172839506172839,24.691358024691358,0)" xlink:href="#E"/></g><path d="M185-189c-5-48-123-54-124 2 14 75 158 14 163 119 3 78-121 87-175 55-17-10-28-26-33-46l33-7c5 56 141 63 141-1 0-78-155-14-162-118-5-82 145-84 179-34 5 7 8 16 11 25" id="N"/><g id="o"><use transform="matrix(0.06172839506172839,0,0,0.06172839506172839,0,0)" xlink:href="#N"/><use transform="matrix(0.06172839506172839,0,0,0.06172839506172839,14.814814814814813,0)" xlink:href="#M"/></g><g id="p"><use transform="matrix(0.06172839506172839,0,0,0.06172839506172839,0,0)" xlink:href="#E"/><use transform="matrix(0.06172839506172839,0,0,0.06172839506172839,12.345679012345679,0)" xlink:href="#K"/><use transform="matrix(0.06172839506172839,0,0,0.06172839506172839,24.691358024691358,0)" xlink:href="#F"/></g><path d="M230 0l2-204L168 0h-37L68-204 70 0H24v-248h70l56 185 57-185h69V0h-46" id="O"/><path d="M128-127c34 4 56 21 59 58 7 91-148 94-172 28-4-9-6-17-7-26l51-5c1 24 16 35 40 36 23 0 39-12 38-36-1-31-31-36-65-34v-40c32 2 59-3 59-33 0-20-13-33-34-33s-33 13-35 32l-50-3c6-44 37-68 86-68 50 0 83 20 83 66 0 35-22 52-53 58" id="P"/><path d="M101-251c68 0 84 54 84 127C185-50 166 4 99 4S15-52 14-124c-1-75 17-127 87-127zm-1 216c37-5 36-46 36-89s4-89-36-89c-39 0-36 45-36 89 0 43-3 85 36 89" id="Q"/><g id="q"><use transform="matrix(0.04938271604938272,0,0,0.04938271604938272,0,0)" xlink:href="#O"/><use transform="matrix(0.04938271604938272,0,0,0.04938271604938272,14.765432098765434,0)" xlink:href="#P"/><use transform="matrix(0.04938271604938272,0,0,0.04938271604938272,24.641975308641978,0)" xlink:href="#Q"/><use transform="matrix(0.04938271604938272,0,0,0.04938271604938272,34.51851851851852,0)" xlink:href="#P"/></g><g id="r"><use transform="matrix(0.06172839506172839,0,0,0.06172839506172839,0,0)" xlink:href="#G"/><use transform="matrix(0.06172839506172839,0,0,0.06172839506172839,12.345679012345679,0)" xlink:href="#K"/><use transform="matrix(0.06172839506172839,0,0,0.06172839506172839,24.691358024691358,0)" xlink:href="#G"/></g><g id="s"><use transform="matrix(0.06172839506172839,0,0,0.06172839506172839,0,0)" xlink:href="#G"/><use transform="matrix(0.06172839506172839,0,0,0.06172839506172839,12.345679012345679,0)" xlink:href="#K"/><use transform="matrix(0.06172839506172839,0,0,0.06172839506172839,24.691358024691358,0)" xlink:href="#E"/></g><g id="t"><use transform="matrix(0.06172839506172839,0,0,0.06172839506172839,0,0)" xlink:href="#G"/><use transform="matrix(0.06172839506172839,0,0,0.06172839506172839,12.345679012345679,0)" xlink:href="#K"/><use transform="matrix(0.06172839506172839,0,0,0.06172839506172839,24.691358024691358,0)" xlink:href="#F"/></g><g id="u"><use transform="matrix(0.06172839506172839,0,0,0.06172839506172839,0,0)" xlink:href="#E"/><use transform="matrix(0.06172839506172839,0,0,0.06172839506172839,12.345679012345679,0)" xlink:href="#K"/><use transform="matrix(0.06172839506172839,0,0,0.06172839506172839,24.691358024691358,0)" xlink:href="#H"/></g><path d="M54-142c48-35 137-8 131 61C196 18 31 33 14-55l32-4c7 23 22 37 52 37 35-1 51-22 54-58 4-55-73-65-99-34H22l8-134h141v27H59" id="R"/><g id="v"><use transform="matrix(0.06172839506172839,0,0,0.06172839506172839,0,0)" xlink:href="#E"/><use transform="matrix(0.06172839506172839,0,0,0.06172839506172839,12.345679012345679,0)" xlink:href="#K"/><use transform="matrix(0.06172839506172839,0,0,0.06172839506172839,24.691358024691358,0)" xlink:href="#R"/></g><g id="w"><use transform="matrix(0.06172839506172839,0,0,0.06172839506172839,0,0)" xlink:href="#H"/><use transform="matrix(0.06172839506172839,0,0,0.06172839506172839,12.345679012345679,0)" xlink:href="#K"/><use transform="matrix(0.06172839506172839,0,0,0.06172839506172839,24.691358024691358,0)" xlink:href="#F"/></g></defs></g></svg>